<svg width="1440" height="1938" viewBox="0 0 1440 1938" fill="none" xmlns="http://www.w3.org/2000/svg">
<g opacity="0.15">
<g filter="url(#filter0_f_38_954)">
<path fill-rule="evenodd" clip-rule="evenodd" d="M147.485 945.499C262.717 874.874 375 665.321 375 542.021C375 479.124 355.214 432.702 322.244 400H0L0 945.233C0.122558 945.322 0.245219 945.411 0.367984 945.499H147.485Z" fill="#7000FF"/>
</g>
<g filter="url(#filter1_f_38_954)">
<path fill-rule="evenodd" clip-rule="evenodd" d="M1302.18 1538H865.728C799.893 1452.45 790.568 1362.28 933.401 1328.38C1152.63 1276.33 1167.72 1192.83 1178.43 1133.6C1185.74 1093.13 1191.01 1064 1257.96 1064C1333.46 1064 1395.26 1098.3 1440.08 1150.52V1483.77C1425.28 1489.74 1409.36 1495.07 1393.13 1500.51C1362.18 1510.87 1330.05 1521.63 1302.18 1538Z" fill="#60FFE7"/>
</g>
</g>
<defs>
<filter id="filter0_f_38_954" x="-400" y="0" width="1175" height="1345.5" filterUnits="userSpaceOnUse" color-interpolation-filters="sRGB">
<feFlood flood-opacity="0" result="BackgroundImageFix"/>
<feBlend mode="normal" in="SourceGraphic" in2="BackgroundImageFix" result="shape"/>
<feGaussianBlur stdDeviation="200" result="effect1_foregroundBlur_38_954"/>
</filter>
<filter id="filter1_f_38_954" x="419.75" y="664" width="1420.33" height="1274" filterUnits="userSpaceOnUse" color-interpolation-filters="sRGB">
<feFlood flood-opacity="0" result="BackgroundImageFix"/>
<feBlend mode="normal" in="SourceGraphic" in2="BackgroundImageFix" result="shape"/>
<feGaussianBlur stdDeviation="200" result="effect1_foregroundBlur_38_954"/>
</filter>
</defs>
</svg>
